<svg width="32" height="32" viewBox="0 0 32 32" fill="none" xmlns="http://www.w3.org/2000/svg">
<path opacity="0.4" d="M24.5065 17.1199V23.6932C24.5065 25.3865 23.1865 27.1999 21.5998 27.7332L17.3465 29.1465C16.5998 29.3999 15.3865 29.3999 14.6532 29.1465L10.3998 27.7332C8.79983 27.1999 7.49316 25.3865 7.49316 23.6932L7.5065 17.1199L13.3998 20.9599C14.8398 21.9065 17.2132 21.9065 18.6532 20.9599L24.5065 17.1199Z" fill="white"/>
<path d="M26.639 8.61333L18.6524 3.37333C17.2124 2.42666 14.839 2.42666 13.399 3.37333L5.37238 8.61333C2.79905 10.28 2.79905 14.0533 5.37238 15.7333L7.50572 17.12L13.399 20.96C14.839 21.9067 17.2124 21.9067 18.6524 20.96L24.5057 17.12L26.3324 15.92V20C26.3324 20.5467 26.7857 21 27.3324 21C27.879 21 28.3324 20.5467 28.3324 20V13.44C28.8657 11.72 28.319 9.72 26.639 8.61333Z" fill="white"/>
</svg>
