<svg width="32" height="32" viewBox="0 0 32 32" fill="none" xmlns="http://www.w3.org/2000/svg">
<path d="M29.0795 5.25362C27.3328 9.61362 23.3461 15.307 19.5461 19.027C18.9995 15.587 16.2528 12.8936 12.7861 12.4136C16.5195 8.60028 22.2528 4.56028 26.6261 2.80028C27.3995 2.50695 28.1728 2.73362 28.6528 3.21362C29.1595 3.72028 29.3995 4.48028 29.0795 5.25362Z" fill="white"/>
<path opacity="0.4" d="M19.546 19.0269C18.8794 19.6802 18.2127 20.2802 17.5727 20.7869L14.946 22.8936C14.6127 23.1336 14.2794 23.3336 13.906 23.4936C13.906 23.2402 13.8794 22.9869 13.8527 22.7202C13.706 21.6136 13.1994 20.5602 12.306 19.6669C11.386 18.7602 10.2927 18.2402 9.15937 18.0936C8.89271 18.0669 8.61271 18.0536 8.35938 18.0669C8.50604 17.6536 8.73271 17.2669 9.01271 16.9469L11.0927 14.3202C11.586 13.6936 12.1594 13.0536 12.786 12.4136C16.2527 12.8936 18.9994 15.5869 19.546 19.0269Z" fill="white"/>
<path d="M13.9067 23.4929C13.9067 24.9596 13.3467 26.3596 12.28 27.4129C11.4667 28.2396 10.3733 28.7996 9.04001 28.9596L5.77335 29.3196C3.98668 29.5196 2.45335 27.9863 2.65335 26.1863L3.01335 22.9063C3.33335 19.9863 5.77335 18.1196 8.36001 18.0663C8.61335 18.0529 8.89335 18.0663 9.16001 18.0929C10.2933 18.2396 11.3867 18.7596 12.3067 19.6663C13.2 20.5596 13.7067 21.6129 13.8533 22.7196C13.88 22.9863 13.9067 23.2396 13.9067 23.4929Z" fill="white"/>
</svg>
