<svg width="6" height="10" viewBox="0 0 6 10" fill="none" xmlns="http://www.w3.org/2000/svg">
<path d="M5.7041 4.83659C5.7041 4.92923 5.6891 5.01485 5.6591 5.09346C5.62896 5.17221 5.57688 5.2486 5.50285 5.32263L1.47494 9.35055C1.34077 9.48472 1.17646 9.54951 0.982018 9.54492C0.787573 9.54034 0.623199 9.4709 0.488893 9.33659C0.354588 9.20228 0.287435 9.03791 0.287435 8.84346C0.287435 8.64902 0.354588 8.48472 0.488893 8.35055L4.0166 4.83659L0.488893 1.30888C0.354588 1.17458 0.289796 1.01249 0.294518 0.822632C0.299101 0.632909 0.368546 0.470895 0.502851 0.33659C0.637018 0.202284 0.801324 0.135132 0.995769 0.135132C1.19021 0.135132 1.35459 0.202284 1.48889 0.33659L5.50285 4.35055C5.57688 4.42458 5.62896 4.50097 5.6591 4.57972C5.6891 4.65833 5.7041 4.74395 5.7041 4.83659Z" fill="#1F40B7"/>
</svg>
