<svg width="32" height="32" viewBox="0 0 32 32" fill="none" xmlns="http://www.w3.org/2000/svg">
<path d="M17.7336 10.8133L19.4936 14.3333C19.7336 14.8133 20.3736 15.2933 20.9069 15.3733L24.0936 15.9066C26.1336 16.2533 26.6136 17.72 25.1469 19.1866L22.6669 21.6666C22.2536 22.08 22.0136 22.8933 22.1469 23.48L22.8536 26.56C23.4136 28.9866 22.1203 29.9333 19.9736 28.6666L16.9869 26.8933C16.4403 26.5733 15.5603 26.5733 15.0136 26.8933L12.0269 28.6666C9.88027 29.9333 8.58693 28.9866 9.14693 26.56L9.85363 23.48C9.98697 22.9066 9.74695 22.0933 9.33361 21.6666L6.85363 19.1866C5.38697 17.72 5.86694 16.24 7.90694 15.9066L11.0936 15.3733C11.627 15.28 12.267 14.8133 12.507 14.3333L14.267 10.8133C15.2136 8.90663 16.7869 8.90663 17.7336 10.8133Z" fill="white"/>
<path opacity="0.4" d="M8 12.9998C7.45333 12.9998 7 12.5465 7 11.9998V2.6665C7 2.11984 7.45333 1.6665 8 1.6665C8.54667 1.6665 9 2.11984 9 2.6665V11.9998C9 12.5465 8.54667 12.9998 8 12.9998Z" fill="white"/>
<path opacity="0.4" d="M24 12.9998C23.4533 12.9998 23 12.5465 23 11.9998V2.6665C23 2.11984 23.4533 1.6665 24 1.6665C24.5467 1.6665 25 2.11984 25 2.6665V11.9998C25 12.5465 24.5467 12.9998 24 12.9998Z" fill="white"/>
<path opacity="0.4" d="M16 6.33317C15.4533 6.33317 15 5.87984 15 5.33317V2.6665C15 2.11984 15.4533 1.6665 16 1.6665C16.5467 1.6665 17 2.11984 17 2.6665V5.33317C17 5.87984 16.5467 6.33317 16 6.33317Z" fill="white"/>
</svg>
