<svg width="32" height="32" viewBox="0 0 32 32" fill="none" xmlns="http://www.w3.org/2000/svg">
<path opacity="0.4" d="M23.3734 10.3598C23.28 10.3465 23.1867 10.3465 23.0934 10.3598C21.0267 10.2932 19.3867 8.59984 19.3867 6.51984C19.3867 4.39984 21.1067 2.6665 23.2401 2.6665C25.3601 2.6665 27.0934 4.3865 27.0934 6.51984C27.0801 8.59984 25.44 10.2932 23.3734 10.3598Z" fill="white"/>
<path opacity="0.4" d="M27.7195 19.6C26.2261 20.6 24.1328 20.9734 22.1995 20.72C22.7061 19.6267 22.9728 18.4134 22.9862 17.1334C22.9862 15.8 22.6928 14.5334 22.1328 13.4267C24.1061 13.1601 26.1995 13.5334 27.7061 14.5334C29.8128 15.92 29.8128 18.2 27.7195 19.6Z" fill="white"/>
<path opacity="0.4" d="M8.58718 10.3598C8.68052 10.3465 8.77385 10.3465 8.86719 10.3598C10.9339 10.2932 12.5739 8.59984 12.5739 6.51984C12.5739 4.39984 10.8539 2.6665 8.72052 2.6665C6.60052 2.6665 4.86719 4.3865 4.86719 6.51984C4.88052 8.59984 6.52052 10.2932 8.58718 10.3598Z" fill="white"/>
<path opacity="0.4" d="M8.73349 17.1336C8.73349 18.427 9.01349 19.6536 9.52016 20.7603C7.64016 20.9603 5.68016 20.5603 4.24016 19.6136C2.13349 18.2136 2.13349 15.9336 4.24016 14.5336C5.66682 13.5736 7.68016 13.187 9.57349 13.4003C9.02682 14.5203 8.73349 15.787 8.73349 17.1336Z" fill="white"/>
<path d="M16.1594 21.16C16.0527 21.1467 15.9327 21.1467 15.8127 21.16C13.3594 21.08 11.3994 19.0667 11.3994 16.5867C11.3994 14.0533 13.4394 12 15.9861 12C18.5194 12 20.5727 14.0533 20.5727 16.5867C20.5727 19.0667 18.6261 21.08 16.1594 21.16Z" fill="white"/>
<path d="M11.8264 23.92C9.81307 25.2667 9.81307 27.48 11.8264 28.8134C14.1197 30.3467 17.8797 30.3467 20.1731 28.8134C22.1864 27.4667 22.1864 25.2534 20.1731 23.92C17.8931 22.3867 14.1331 22.3867 11.8264 23.92Z" fill="white"/>
</svg>
